# xmcd
#
# Track frame offsets: 
#        150
#        14909
#        33385
#        52066
#        66445
#        79719
#        95820
#        113167
#        129272
#        144768
#        162879
#        180073
#        193672
#        205071
#        221409
#        233588
#        248647
#
# Disc length: 3544 seconds
#
# Revision: 0
# Processed by: cddbd v1.5.2PL0 Copyright (c) Steve Scherf et al.
# Submitted via: ExactAudioCopy v0.95b4
#
DISCID=e40dd611
DTITLE=Андрей Бандера - Потому что люблю
DYEAR=2007
DGENRE=Шансон
TTITLE0=Соловьи
TTITLE1=Ивушки
TTITLE2=Русь
TTITLE3=А помнишь
TTITLE4=Клен
TTITLE5=Я хочу обвенчаться с тобой
TTITLE6=Самая желанная
TTITLE7=Выткался над озером
TTITLE8=Голуби
TTITLE9=Закружится
TTITLE10=Осенний дождь
TTITLE11=Пацанка
TTITLE12=Перекрестимся
TTITLE13=Ручеек (дуэт с Р.Сафиным)
TTITLE14=По этапу
TTITLE15=Подвиг
TTITLE16=Осенний дождь (бонус трек)
EXTD=
EXTT0=
EXTT1=
EXTT2=
EXTT3=
EXTT4=
EXTT5=
EXTT6=
EXTT7=
EXTT8=
EXTT9=
EXTT10=
EXTT11=
EXTT12=
EXTT13=
EXTT14=
EXTT15=
EXTT16=
PLAYORDER=
